<svg xmlns="http://www.w3.org/2000/svg" width="45" height="42" fill="none"><path fill="#AFB1B8" d="M7.40628 41.1014c.01591.0004.03158.0035.0461.0092.01451.0057.02757.0139.03842.024l.21812.2085c-.16931.1687-.37857.3037-.61346.3957-.27507.1003-.57152.1487-.86974.1421-.28024.005-.55867-.0401-.81795-.1327-.23388-.085-.44401-.2126-.61618-.3743-.17571-.1677-.31105-.3643-.39806-.5781-.09529-.2384-.14234-.4893-.13905-.7416-.00387-.2539.04699-.5062.14995-.7439.09525-.2152.23892-.4117.42261-.5781.18617-.1631.40888-.2914.65435-.3767.26853-.0905.55449-.1355.84248-.1327.26751-.0056.5336.0354.7825.1208.21594.0814.41421.1944.58619.3341l-.18268.2227c-.01262.0157-.0283.0293-.04635.0403-.02155.0128-.0476.0187-.07361.0166-.0283-.0017-.05558-.0099-.07907-.0237l-.09815-.0593-.13633-.0758c-.05884-.0281-.11988-.0527-.18267-.0734-.08087-.0252-.16381-.045-.24811-.0592-.10699-.0172-.21567-.0251-.32445-.0237-.20738-.0023-.41318.0315-.60527.0995-.17915.0629-.34086.1582-.47441.2795-.13595.1291-.24072.2806-.30809.4455-.07679.1886-.11463.3875-.11179.5875-.00327.2032.03457.4053.11179.5971.06653.1634.16935.314.30264.443.12487.1203.27966.2143.45259.2749.17797.0641.369.0963.56165.0947.11129.0015.22253-.0048.33263-.0189.17979-.0191.35225-.0734.5044-.1588.07631-.0437.14835-.0928.21539-.1469.02803-.0232.06489-.0367.10361-.0379ZM13.7044 40.0538c.0034.2514-.0465.5011-.1473.7368-.0888.2137-.2288.4087-.4106.572-.1819.1634-.4015.2914-.6445.3756-.5338.1769-1.1239.1769-1.6577 0-.2413-.0855-.4595-.2138-.6407-.3767-.1817-.1663-.32271-.3629-.41439-.578-.1964-.4772-.1964-.9988 0-1.4759.09301-.2153.23379-.4125.41439-.5805.1827-.1577.4008-.2811.6407-.3624.5332-.1801 1.1246-.1801 1.6577 0 .2422.0855.4613.2137.6435.3767.1795.1646.3194.3587.4116.5709.1011.2372.151.4886.1473.7415Zm-.5726 0c.0043-.2011-.0307-.4013-.1036-.5923-.0611-.1635-.1604-.3143-.2917-.443-.1278-.1217-.2852-.2172-.4608-.2795-.3878-.1295-.8172-.1295-1.2051 0-.1755.0623-.3329.1578-.4607.2795-.1332.1279-.2335.2789-.2945.443-.1387.3857-.1387.7989 0 1.1846.0616.1639.1619.3148.2945.443.128.121.2854.2157.4607.2772.3886.1262.8166.1262 1.2051 0 .1754-.0615.3328-.1562.4608-.2772.1307-.129.23-.2797.2917-.443.0732-.1909.1082-.3912.1036-.5923ZM18.0013 40.6747l.0573.1327c.0218-.0474.0409-.0901.0627-.1327.0208-.0445.0444-.088.0709-.1303l1.3932-2.2006c.0273-.0379.0518-.0615.0791-.0687.037-.0098.0758-.0138.1145-.0118h.4117v3.5792h-.4881v-2.743c-.0026-.041-.0026-.0822 0-.1232l-1.4014 2.2314c-.0178.0334-.0462.0617-.082.0814-.0358.0198-.0774.0301-.1197.0299h-.0791c-.0425.0005-.0842-.0097-.12-.0295-.0358-.0198-.0642-.0482-.0818-.0818l-1.4423-2.2456v2.8733h-.4716v-3.5721h.4117c.0386-.002.0774.002.1145.0118.0338.0146.0607.0389.0763.0687l1.4232 2.203c.028.0407.0517.0835.0709.1279ZM23.2443 40.4969v1.3407h-.5453v-3.5744h1.216c.2296-.0038.4585.0225.6789.0781.1765.0435.3402.1194.4799.2227.1211.0968.2145.2168.2726.3506.0644.1458.0959.301.0927.4571.0024.1568-.0319.3123-.1008.4572-.0656.1371-.1663.2595-.2945.3577-.1399.1075-.3043.1883-.4826.2368-.2123.059-.4343.087-.6571.0829l-.6598-.0094Zm0-.3838h.6598c.1434.0017.286-.0167.4226-.0544.1127-.033.2166-.0854.3054-.154.0819-.0656.1454-.1466.1854-.2369.0446-.0955.0669-.1977.0654-.3008.0064-.0994-.0123-.1987-.0547-.2912-.0423-.0924-.1074-.1758-.1906-.2441-.2083-.1413-.47-.2098-.7335-.1919h-.6598v1.4733ZM30.5731 41.8424h-.4308c-.0432.0014-.0857-.0103-.12-.0332-.0309-.0223-.0552-.0507-.0709-.0829l-.3708-.8647h-1.8621l-.3845.8647c-.0141.0316-.0376.0594-.0681.0806-.0347.0242-.0782.0368-.1227.0355h-.4308l1.6359-3.5796h.5671l1.6577 3.5796Zm-2.6992-1.329h1.5377l-.6489-1.457c-.0496-.1096-.0906-.222-.1227-.3364l-.0627.1872c-.0191.0568-.0409.109-.06.1516l-.6434 1.4546ZM32.9288 38.2795c.0326.0155.0606.0374.0818.0639l2.3856 2.6983V38.2629h.4881v3.5795h-.2727c-.0387.001-.0771-.0063-.1118-.0213-.0336-.0171-.0633-.0396-.0872-.0663l-2.3829-2.6959c.0026.041.0026.0821 0 .1232V41.8424h-.4881v-3.5795h.289c.0338-.0008.0673.0048.0982.0166ZM39.9031 40.4188v1.4214h-.5453v-1.4214L37.85 38.2631h.4881c.042-.0022.0836.0087.1172.0307.0297.023.0546.0503.0736.0806l.9434 1.3906c.0382.0592.0709.1137.0982.1658.0272.0521.049.1019.0681.1516l.0709-.154c.0265-.0563.0574-.1109.0927-.1634l.9297-1.4001c.0196-.0279.0434-.0534.0709-.0758.0324-.0245.0744-.0373.1173-.0355h.4935l-1.5105 2.1652ZM17.7314 32.2561c.2372.0261.4771.0474.7198.0664 3.6788-1.4299 6.791-3.7702 8.9474-6.7283 2.1565-2.9582 3.2616-6.403 3.1772-9.9038l-4.0542-3.5226c.8243 3.7273.4387 7.5804-1.1137 11.1281-1.5524 3.5478-4.2104 6.6502-7.6765 8.9602Z"/><path fill="#AFB1B8" d="m16.2837 32.0923.1091.0189c3.7038-2.3018 6.5277-5.5161 8.1065-9.2273 1.5787-3.7112 1.8396-7.7486.749-11.59l-5.7746-5.01717c2.3357 4.12407 3.2758 8.73947 2.7111 13.30947-.5647 4.57-2.6111 8.9068-5.9011 12.5061ZM35.8679 19.8265c-.9811 3.8466-3.3638 7.3158-6.7944 9.8924-1.0019.7566-2.0826 1.4307-3.2281 2.0135 2.7935-.7134 5.3611-1.9746 7.5048-3.6864 2.1438-1.7119 3.8064-3.8286 4.8598-6.187l-2.3421-2.0325Z"/><path fill="#AFB1B8" d="m34.9491 19.2601-3.3345-2.8972c-.0637 3.3031-1.1445 6.5311-3.13 9.3485-1.9855 2.8173-4.8032 5.1213-8.1603 6.6723h.0163c.7482-.0002 1.4956-.039 2.2385-.1161 3.1374-1.1126 5.9089-2.8827 8.0674-5.1524 2.1584-2.2697 3.6366-4.9683 4.3026-7.8551ZM16.7663 4.16091 12.7883.699951C9.23222 1.89391 6.1738 3.99283 4.01337 6.72203 1.85294 9.45122.69115 12.6835.680054 15.9959.693382 19.656 2.11126 23.2077 4.70929 26.0888c2.59802 2.8811 6.22781 4.9272 10.31481 5.8142 3.6484-3.862 5.7845-8.6343 6.0978-13.6232.3133-4.989-1.2125-9.93485-4.3556-14.11889ZM44.14 18.7273c-.0143-4.3425-2.0062-8.5035-5.5403-11.57412-3.5342-3.07061-8.3234-4.80119-13.3214-4.81369-2.3095-.00208-4.5994.3682-6.7535 1.09204L42.8804 24.5926c.834-1.8705 1.2611-3.8593 1.2596-5.8653Z"/></svg>